<svg width="17" height="16" viewBox="0 0 17 16" fill="none" xmlns="http://www.w3.org/2000/svg">
<g clip-path="url(#clip0_2492_21835)">
<path d="M8.81478 15.3337C12.8582 15.3337 16.1481 12.044 16.1481 8.00033C16.1481 7.30238 16.0507 6.61458 15.8578 5.95588C15.7627 5.63197 15.4245 5.44592 15.0997 5.54096C14.7755 5.6357 14.59 5.97512 14.6848 6.29903C14.8446 6.84629 14.9259 7.4189 14.9259 8.00033C14.9259 11.3699 12.1844 14.1114 8.81478 14.1114C5.44516 14.1114 2.70367 11.3699 2.70367 8.00033C2.70367 4.63071 5.44516 1.88921 8.81478 1.88921C10.0394 1.88921 11.2176 2.24729 12.222 2.92449C12.5016 3.11323 12.8817 3.03908 13.0702 2.75948C13.2588 2.47959 13.1852 2.09973 12.9053 1.91115C11.6983 1.09728 10.2839 0.666992 8.81478 0.666992C4.77139 0.666992 1.48145 3.95664 1.48145 8.00033C1.48145 12.044 4.77139 15.3337 8.81478 15.3337Z" fill="#FF3F3A"/>
<path d="M15.6766 1.52885L8.81466 8.3905L6.61934 6.19552C6.35893 5.93526 5.93705 5.93526 5.67664 6.19552C5.41638 6.45593 5.41638 6.87781 5.67664 7.13822L8.3433 9.80489C8.47367 9.93526 8.64392 10.0002 8.81466 10.0002C8.98539 10.0002 9.15564 9.93526 9.28601 9.80489L16.6193 2.47156C16.8796 2.21114 16.8796 1.78927 16.6193 1.52885C16.3589 1.2686 15.9371 1.2686 15.6766 1.52885Z" fill="#FF3F3A"/>
</g>
<defs>
<clipPath id="clip0_2492_21835">
<rect width="16" height="16" fill="white" transform="translate(0.814453)"/>
</clipPath>
</defs>
</svg>
